<svg width="127" height="37" viewBox="0 0 127 37" fill="none" xmlns="http://www.w3.org/2000/svg">
<path d="M102.754 10.197C103.674 10.197 104.08 10.6499 103.971 11.5556L103.807 12.8188C103.698 13.6132 103.23 14.0105 102.403 14.0105H100.718C99.8131 14.0105 99.4153 13.5576 99.5245 12.6519L99.6883 11.3887C99.7663 10.5943 100.227 10.197 101.069 10.197H102.754Z" fill="#192122"/>
<path d="M103.362 15.5358L101.748 27.3813H97.512L99.1267 15.5358H103.362Z" fill="#192122"/>
<path fill-rule="evenodd" clip-rule="evenodd" d="M53.9617 11.1504C53.1192 10.8803 52.0038 10.7452 50.6153 10.7452C49.7104 10.7452 48.8991 10.7531 48.1815 10.769C47.4795 10.769 46.8164 10.7849 46.1924 10.8167C45.5839 10.8326 44.9599 10.8723 44.3202 10.9359L42.0503 27.3813C42.7835 27.429 43.5012 27.4687 44.2032 27.5005C44.9053 27.5323 45.6775 27.5482 46.52 27.5482C47.3624 27.564 48.3609 27.572 49.5154 27.572C50.8259 27.572 51.9023 27.4608 52.7448 27.2383C53.5873 27 54.2347 26.5869 54.6871 25.999C55.1396 25.3952 55.4438 24.5451 55.5998 23.4487C55.787 22.114 55.6622 21.0574 55.2254 20.2788C54.7885 19.4843 53.9461 19.0315 52.698 18.9203L52.7214 18.7773C53.8135 18.6819 54.5935 18.3482 55.0616 17.7762C55.5452 17.2042 55.865 16.3462 56.021 15.2022C56.1614 14.0422 56.0678 13.1445 55.7402 12.5089C55.4126 11.8575 54.8197 11.4046 53.9617 11.1504ZM50.4514 13.9151C51.0599 13.9151 51.4577 14.0263 51.6449 14.2488C51.8477 14.4554 51.9101 14.8685 51.8321 15.4882C51.7073 16.2985 51.4967 16.8308 51.2003 17.085C50.9195 17.3393 50.4124 17.4664 49.6792 17.4664H47.7135L48.2049 13.9151H50.4514ZM47.3156 20.255H49.5856C50.35 20.255 50.8415 20.3821 51.0599 20.6363C51.2783 20.8905 51.3329 21.4228 51.2237 22.2332C51.1301 22.8211 50.9975 23.2739 50.8259 23.5917C50.6699 23.9095 50.4202 24.124 50.077 24.2352C49.7338 24.3465 49.2736 24.4021 48.6963 24.4021H46.754L47.3156 20.255Z" fill="#192122"/>
<path fill-rule="evenodd" clip-rule="evenodd" d="M67.8724 15.7027C67.0456 15.369 65.8677 15.2022 64.3388 15.2022C62.9659 15.2022 61.7958 15.369 60.8286 15.7027C59.8613 16.0205 59.0969 16.6243 58.5352 17.5141C57.9736 18.388 57.5992 19.6591 57.412 21.3275C57.2715 22.7099 57.3495 23.8698 57.646 24.8073C57.9424 25.7447 58.543 26.4597 59.4479 26.9523C60.3527 27.429 61.6398 27.6673 63.3091 27.6673C64.1828 27.6673 65.0955 27.5958 66.0471 27.4528C67.0144 27.3098 67.888 27.0635 68.6681 26.714L68.3639 24.0446C67.9114 24.0922 67.381 24.1399 66.7726 24.1876C66.1797 24.2193 65.6025 24.2511 65.0409 24.2829C64.4948 24.2988 64.0502 24.3067 63.707 24.3067C63.0361 24.3067 62.5447 24.2193 62.2327 24.0446C61.9207 23.8539 61.7568 23.4249 61.7412 22.7575L64.9473 22.4954C66.4762 22.3841 67.6228 22.1299 68.3873 21.7327C69.1673 21.3195 69.6354 20.5727 69.7914 19.4923C69.9318 18.5548 69.8538 17.7683 69.5574 17.1327C69.2765 16.4971 68.7149 16.0205 67.8724 15.7027ZM63.1453 18.3006C63.4417 18.1576 63.8318 18.0861 64.3154 18.0861C64.9082 18.0702 65.3061 18.1258 65.5089 18.2529C65.7117 18.38 65.7819 18.6501 65.7195 19.0633C65.6571 19.5717 65.4855 19.8975 65.2047 20.0405C64.9238 20.1835 64.5104 20.2788 63.9644 20.3265L61.9987 20.541C62.1235 19.8736 62.2717 19.3652 62.4433 19.0156C62.6305 18.666 62.8645 18.4277 63.1453 18.3006Z" fill="#192122"/>
<path d="M76.7446 15.2022C77.3374 15.218 77.9848 15.2498 78.6869 15.2975C79.3889 15.3293 80.0676 15.3849 80.7228 15.4643C81.3781 15.5438 81.9319 15.6312 82.3843 15.7265L82.0333 18.2767H79.74C78.9911 18.2609 78.2579 18.2529 77.5402 18.2529C76.6821 18.2529 76.1049 18.2767 75.8085 18.3244C75.5121 18.3562 75.3483 18.4833 75.3171 18.7058C75.2859 18.9123 75.3561 19.0712 75.5277 19.1824C75.7149 19.2937 76.0425 19.4287 76.5105 19.5876L79.2251 20.4456C80.1612 20.7316 80.8476 21.1686 81.2845 21.7565C81.7369 22.3444 81.9085 23.123 81.7993 24.0922C81.6745 25.1091 81.3703 25.8718 80.8866 26.3803C80.403 26.8888 79.7478 27.2224 78.9209 27.3813C78.094 27.5561 77.119 27.6435 75.9957 27.6435C75.1845 27.6435 74.3264 27.6117 73.4215 27.5482C72.5323 27.4846 71.5104 27.3575 70.3559 27.1668L70.7304 24.5927C70.9644 24.6086 71.2998 24.6166 71.7366 24.6166H74.5916C75.4341 24.6166 76.0737 24.6007 76.5105 24.5689C76.9474 24.5371 77.2516 24.4815 77.4232 24.4021C77.5948 24.3067 77.6884 24.1796 77.704 24.0207C77.7352 23.8142 77.6572 23.6632 77.47 23.5679C77.2984 23.4725 76.9396 23.3375 76.3935 23.1627L73.7726 22.2808C72.7429 21.9472 72.033 21.4546 71.643 20.8031C71.2686 20.1358 71.1438 19.3254 71.2686 18.3721C71.3778 17.6729 71.6118 17.093 71.9706 16.6322C72.3451 16.1555 72.9145 15.798 73.679 15.5597C74.4434 15.3213 75.4653 15.2022 76.7446 15.2022Z" fill="#192122"/>
<path d="M88.1431 17.7524L88.0963 15.5358H84.7499L83.1352 27.3813H87.3943L88.3771 20.1835C88.97 19.7227 89.477 19.3969 89.8982 19.2063C90.3351 18.9997 90.7329 18.8885 91.0917 18.8726C91.4505 18.8408 91.6846 18.9123 91.7938 19.0871C91.903 19.246 91.9264 19.5399 91.864 19.969L90.8343 27.3813H95.0934L96.3103 18.5866C96.4663 17.4743 96.2479 16.6322 95.655 16.0602C95.0778 15.4882 94.3055 15.2022 93.3383 15.2022C92.4802 15.2022 91.5909 15.4326 90.6705 15.8933C89.7656 16.3382 88.9232 16.9579 88.1431 17.7524Z" fill="#192122"/>
<path d="M109.868 17.5379L110.781 10.6975H106.522L104.229 27.3813H108.488L109.002 23.7347C109.018 23.6076 109.026 23.4646 109.026 23.3057C109.26 23.2263 109.502 23.1468 109.751 23.0674L110.5 22.7814L112.536 27.3813H116.912L114.759 22.7337C114.634 22.4477 114.478 22.1776 114.291 21.9233C114.104 21.6532 113.87 21.4069 113.589 21.1845C114.494 20.5648 115.298 19.8021 116 18.8964C116.717 17.9907 117.24 16.8705 117.567 15.5358H113.191C112.957 16.5369 112.443 17.4743 111.647 18.3482C110.851 19.2063 109.939 19.8974 108.909 20.4218C109.143 19.9451 109.338 19.4764 109.494 19.0156C109.65 18.5389 109.775 18.0463 109.868 17.5379Z" fill="#192122"/>
<path d="M124.075 27.9543C125.691 27.9543 127 26.6205 127 24.9751C127 23.3297 125.691 21.9958 124.075 21.9958C122.46 21.9958 121.15 23.3297 121.15 24.9751C121.15 26.6205 122.46 27.9543 124.075 27.9543Z" fill="#192122"/>
<ellipse cx="18.1644" cy="18.5" rx="18.1644" ry="18.5" fill="#192122"/>
<path d="M17.9775 36.8096C28.0093 36.8096 36.1418 28.5269 36.1418 18.3096C36.1418 12.5876 33.5912 7.47234 29.5847 4.07886L4.00488 30.1313C7.33679 34.2118 12.3593 36.8096 17.9775 36.8096Z" fill="#192122"/>
</svg>
